<svg width="196" height="180" viewBox="0 0 196 180" fill="none" xmlns="http://www.w3.org/2000/svg">
<circle cx="4.53237" cy="4.53237" r="4.53237" fill="#00D285"/>
<circle cx="4.53237" cy="20.0719" r="4.53237" fill="#00D285"/>
<circle cx="4.53237" cy="35.6115" r="4.53237" fill="#00D285"/>
<circle cx="4.53237" cy="51.151" r="4.53237" fill="#00D285"/>
<circle cx="4.53237" cy="66.6906" r="4.53237" fill="#00D285"/>
<circle cx="4.53237" cy="82.2301" r="4.53237" fill="#00D285"/>
<circle cx="4.53237" cy="97.7697" r="4.53237" fill="#00D285"/>
<circle cx="4.53237" cy="113.309" r="4.53237" fill="#00D285"/>
<circle cx="4.53237" cy="128.849" r="4.53237" fill="#00D285"/>
<circle cx="4.53237" cy="144.388" r="4.53237" fill="#00D285"/>
<circle cx="4.53237" cy="159.928" r="4.53237" fill="#00D285"/>
<circle cx="4.53237" cy="175.467" r="4.53237" fill="#00D285"/>
<circle cx="25.2519" cy="4.53237" r="4.53237" fill="#00D285"/>
<circle cx="25.2519" cy="20.0719" r="4.53237" fill="#00D285"/>
<circle cx="25.2519" cy="35.6115" r="4.53237" fill="#00D285"/>
<circle cx="25.2519" cy="51.151" r="4.53237" fill="#00D285"/>
<circle cx="25.2519" cy="66.6906" r="4.53237" fill="#00D285"/>
<circle cx="25.2519" cy="82.2301" r="4.53237" fill="#00D285"/>
<circle cx="25.2519" cy="97.7697" r="4.53237" fill="#00D285"/>
<circle cx="25.2519" cy="113.309" r="4.53237" fill="#00D285"/>
<circle cx="25.2519" cy="128.849" r="4.53237" fill="#00D285"/>
<circle cx="25.2519" cy="144.388" r="4.53237" fill="#00D285"/>
<circle cx="25.2519" cy="159.928" r="4.53237" fill="#00D285"/>
<circle cx="25.2519" cy="175.467" r="4.53237" fill="#00D285"/>
<circle cx="45.9713" cy="4.53237" r="4.53237" fill="#00D285"/>
<circle cx="66.6906" cy="4.53237" r="4.53237" fill="#00D285"/>
<circle cx="87.4103" cy="4.53237" r="4.53237" fill="#00D285"/>
<circle cx="108.13" cy="4.53237" r="4.53237" fill="#00D285"/>
<circle cx="128.849" cy="4.53237" r="4.53237" fill="#00D285"/>
<circle cx="149.569" cy="4.53237" r="4.53237" fill="#00D285"/>
<circle cx="170.288" cy="4.53237" r="4.53237" fill="#00D285"/>
<circle cx="191.007" cy="4.53237" r="4.53237" fill="#00D285"/>
<circle cx="45.9713" cy="20.0719" r="4.53237" fill="#00D285"/>
<circle cx="66.6906" cy="20.0719" r="4.53237" fill="#00D285"/>
<circle cx="87.4103" cy="20.0719" r="4.53237" fill="#00D285"/>
<circle cx="108.13" cy="20.0719" r="4.53237" fill="#00D285"/>
<circle cx="128.849" cy="20.0719" r="4.53237" fill="#00D285"/>
<circle cx="149.569" cy="20.0719" r="4.53237" fill="#00D285"/>
<circle cx="170.288" cy="20.0719" r="4.53237" fill="#00D285"/>
<circle cx="191.007" cy="20.0719" r="4.53237" fill="#00D285"/>
<circle cx="45.9713" cy="35.6115" r="4.53237" fill="#00D285"/>
<circle cx="66.6906" cy="35.6115" r="4.53237" fill="#00D285"/>
<circle cx="87.4103" cy="35.6115" r="4.53237" fill="#00D285"/>
<circle cx="108.13" cy="35.6115" r="4.53237" fill="#00D285"/>
<circle cx="128.849" cy="35.6115" r="4.53237" fill="#00D285"/>
<circle cx="149.569" cy="35.6115" r="4.53237" fill="#00D285"/>
<circle cx="170.288" cy="35.6115" r="4.53237" fill="#00D285"/>
<circle cx="191.007" cy="35.6115" r="4.53237" fill="#00D285"/>
<circle cx="45.9713" cy="51.151" r="4.53237" fill="#00D285"/>
<circle cx="66.6906" cy="51.151" r="4.53237" fill="#00D285"/>
<circle cx="87.4103" cy="51.151" r="4.53237" fill="#00D285"/>
<circle cx="108.13" cy="51.151" r="4.53237" fill="#00D285"/>
<circle cx="128.849" cy="51.151" r="4.53237" fill="#00D285"/>
<circle cx="149.569" cy="51.151" r="4.53237" fill="#00D285"/>
<circle cx="170.288" cy="51.151" r="4.53237" fill="#00D285"/>
<circle cx="191.007" cy="51.151" r="4.53237" fill="#00D285"/>
<circle cx="45.9713" cy="66.6906" r="4.53237" fill="#00D285"/>
<circle cx="66.6906" cy="66.6906" r="4.53237" fill="#00D285"/>
<circle cx="87.4103" cy="66.6906" r="4.53237" fill="#00D285"/>
<circle cx="108.13" cy="66.6906" r="4.53237" fill="#00D285"/>
<circle cx="128.849" cy="66.6906" r="4.53237" fill="#00D285"/>
<circle cx="149.569" cy="66.6906" r="4.53237" fill="#00D285"/>
<circle cx="170.288" cy="66.6906" r="4.53237" fill="#00D285"/>
<circle cx="191.007" cy="66.6906" r="4.53237" fill="#00D285"/>
<circle cx="45.9713" cy="82.2301" r="4.53237" fill="#00D285"/>
<circle cx="66.6906" cy="82.2301" r="4.53237" fill="#00D285"/>
<circle cx="87.4103" cy="82.2301" r="4.53237" fill="#00D285"/>
<circle cx="108.13" cy="82.2301" r="4.53237" fill="#00D285"/>
<circle cx="128.849" cy="82.2301" r="4.53237" fill="#00D285"/>
<circle cx="149.569" cy="82.2301" r="4.53237" fill="#00D285"/>
<circle cx="170.288" cy="82.2301" r="4.53237" fill="#00D285"/>
<circle cx="191.007" cy="82.2301" r="4.53237" fill="#00D285"/>
<circle cx="45.9713" cy="97.7697" r="4.53237" fill="#00D285"/>
<circle cx="66.6906" cy="97.7697" r="4.53237" fill="#00D285"/>
<circle cx="87.4103" cy="97.7697" r="4.53237" fill="#00D285"/>
<circle cx="108.13" cy="97.7697" r="4.53237" fill="#00D285"/>
<circle cx="128.849" cy="97.7697" r="4.53237" fill="#00D285"/>
<circle cx="149.569" cy="97.7697" r="4.53237" fill="#00D285"/>
<circle cx="170.288" cy="97.7697" r="4.53237" fill="#00D285"/>
<circle cx="191.007" cy="97.7697" r="4.53237" fill="#00D285"/>
<circle cx="45.9713" cy="113.309" r="4.53237" fill="#00D285"/>
<circle cx="66.6906" cy="113.309" r="4.53237" fill="#00D285"/>
<circle cx="87.4103" cy="113.309" r="4.53237" fill="#00D285"/>
<circle cx="108.13" cy="113.309" r="4.53237" fill="#00D285"/>
<circle cx="128.849" cy="113.309" r="4.53237" fill="#00D285"/>
<circle cx="149.569" cy="113.309" r="4.53237" fill="#00D285"/>
<circle cx="170.288" cy="113.309" r="4.53237" fill="#00D285"/>
<circle cx="191.007" cy="113.309" r="4.53237" fill="#00D285"/>
<circle cx="45.9713" cy="128.849" r="4.53237" fill="#00D285"/>
<circle cx="66.6906" cy="128.849" r="4.53237" fill="#00D285"/>
<circle cx="87.4103" cy="128.849" r="4.53237" fill="#00D285"/>
<circle cx="108.13" cy="128.849" r="4.53237" fill="#00D285"/>
<circle cx="128.849" cy="128.849" r="4.53237" fill="#00D285"/>
<circle cx="149.569" cy="128.849" r="4.53237" fill="#00D285"/>
<circle cx="170.288" cy="128.849" r="4.53237" fill="#00D285"/>
<circle cx="191.007" cy="128.849" r="4.53237" fill="#00D285"/>
<circle cx="45.9713" cy="144.388" r="4.53237" fill="#00D285"/>
<circle cx="66.6906" cy="144.388" r="4.53237" fill="#00D285"/>
<circle cx="87.4103" cy="144.388" r="4.53237" fill="#00D285"/>
<circle cx="108.13" cy="144.388" r="4.53237" fill="#00D285"/>
<circle cx="128.849" cy="144.388" r="4.53237" fill="#00D285"/>
<circle cx="149.569" cy="144.388" r="4.53237" fill="#00D285"/>
<circle cx="170.288" cy="144.388" r="4.53237" fill="#00D285"/>
<circle cx="191.007" cy="144.388" r="4.53237" fill="#00D285"/>
<circle cx="45.9713" cy="159.928" r="4.53237" fill="#00D285"/>
<circle cx="66.6906" cy="159.928" r="4.53237" fill="#00D285"/>
<circle cx="87.4103" cy="159.928" r="4.53237" fill="#00D285"/>
<circle cx="108.13" cy="159.928" r="4.53237" fill="#00D285"/>
<circle cx="128.849" cy="175.467" r="4.53237" fill="#00D285"/>
<circle cx="149.569" cy="159.928" r="4.53237" fill="#00D285"/>
<circle cx="170.288" cy="159.928" r="4.53237" fill="#00D285"/>
<circle cx="191.007" cy="159.928" r="4.53237" fill="#00D285"/>
<circle cx="45.9713" cy="175.467" r="4.53237" fill="#00D285"/>
<circle cx="66.6906" cy="175.467" r="4.53237" fill="#00D285"/>
<circle cx="87.4103" cy="175.467" r="4.53237" fill="#00D285"/>
<circle cx="108.13" cy="175.467" r="4.53237" fill="#00D285"/>
<circle cx="128.849" cy="159.928" r="4.53237" fill="#00D285"/>
<circle cx="149.569" cy="175.467" r="4.53237" fill="#00D285"/>
<circle cx="170.288" cy="175.467" r="4.53237" fill="#00D285"/>
<circle cx="191.007" cy="175.467" r="4.53237" fill="#00D285"/>
</svg>
