<svg width="20" height="20" viewBox="0 0 20 20" fill="none" xmlns="http://www.w3.org/2000/svg">
<path d="M6.25043 7.81813C6.25023 7.81813 6.25008 7.81813 6.24992 7.81813H2.91659C2.68659 7.81798 2.50008 7.99733 2.49992 8.21864C2.49992 8.21883 2.49992 8.21898 2.49992 8.21913V17.8431C2.49977 18.0644 2.68613 18.2439 2.91608 18.2441C2.91629 18.2441 2.91644 18.2441 2.91659 18.2441H6.24992C6.47993 18.2442 6.66644 18.0648 6.66659 17.8435C6.66659 17.8433 6.66659 17.8432 6.66659 17.8431V8.21913C6.66674 7.99777 6.48038 7.81827 6.25043 7.81813ZM5.83326 17.4421H3.33326V8.62012H5.83326V17.4421ZM14.9999 7.81813C14.0959 7.81818 13.2171 8.10532 12.4999 8.635V8.21913C12.5001 7.99777 12.3137 7.81827 12.0838 7.81813C12.0836 7.81813 12.0834 7.81813 12.0833 7.81813H8.74992C8.51992 7.81798 8.33341 7.99733 8.33326 8.21864C8.33326 8.21883 8.33326 8.21898 8.33326 8.21913V17.8431C8.33311 18.0644 8.51947 18.2439 8.74947 18.2441C8.74962 18.2441 8.74977 18.2441 8.74992 18.2441H12.0833C12.3133 18.2442 12.4998 18.0648 12.4999 17.8435C12.4999 17.8433 12.4999 17.8432 12.4999 17.8431V13.4321C12.4999 12.7677 13.0596 12.2291 13.7499 12.2291C14.4403 12.2291 14.9999 12.7677 14.9999 13.4321V17.8431C14.9998 18.0644 15.1861 18.2439 15.4161 18.2441C15.4163 18.2441 15.4164 18.2441 15.4166 18.2441H18.7499C18.9799 18.2442 19.1664 18.0648 19.1666 17.8435C19.1666 17.8433 19.1666 17.8432 19.1666 17.8431V11.8281C19.1639 9.61454 17.3 7.82072 14.9999 7.81813ZM18.3333 17.4421H15.8333V13.4321C15.8333 12.3247 14.9005 11.4271 13.7499 11.4271C12.5993 11.4271 11.6666 12.3247 11.6666 13.4321V17.4421H9.16659V8.62012H11.6666V9.58502C11.6666 9.75542 11.7786 9.90716 11.9458 9.96331C12.1126 10.0212 12.2991 9.96972 12.4088 9.83564C13.5443 8.45076 15.6313 8.21398 17.0703 9.30679C17.8718 9.91553 18.3377 10.8454 18.3333 11.8281V17.4421ZM4.88991 2.20564C4.7919 2.19903 4.69353 2.19854 4.59546 2.20417C3.33773 2.12149 2.24851 3.03573 2.1626 4.24616C2.15914 4.29486 2.15742 4.34362 2.15731 4.39242C2.14648 5.59257 3.14863 6.57392 4.39568 6.58435C4.44659 6.58479 4.49745 6.58352 4.54826 6.58063H4.57186C5.82721 6.66516 6.91602 5.7543 7.00386 4.54617C7.0917 3.33804 6.14525 2.29017 4.88991 2.20564ZM4.86112 5.78093C4.76489 5.78945 4.66794 5.78872 4.57186 5.77863H4.54826C3.7515 5.83757 3.05601 5.26378 2.99477 4.49698C2.93353 3.73023 3.52974 3.06084 4.3265 3.0019C4.41612 2.9953 4.50615 2.99672 4.59546 3.00616C5.39162 2.93558 6.09652 3.49948 6.16992 4.26569C6.24326 5.03195 5.65732 5.71035 4.86112 5.78093Z" fill="white"/>
</svg>
