<svg width="20" height="20" viewBox="0 0 20 20" fill="none" xmlns="http://www.w3.org/2000/svg">
<path d="M14.4498 4.94116C14.2521 4.94116 14.0587 4.9976 13.8943 5.10335C13.7298 5.2091 13.6016 5.35941 13.526 5.53526C13.4503 5.71112 13.4305 5.90462 13.4691 6.09131C13.5076 6.27799 13.6029 6.44947 13.7427 6.58407C13.8826 6.71866 14.0608 6.81032 14.2547 6.84745C14.4487 6.88459 14.6498 6.86553 14.8325 6.79269C15.0152 6.71985 15.1714 6.5965 15.2813 6.43823C15.3912 6.27997 15.4498 6.0939 15.4498 5.90355C15.4498 5.64831 15.3445 5.40352 15.1569 5.22304C14.9694 5.04255 14.7151 4.94116 14.4498 4.94116ZM18.2832 6.88199C18.267 6.21657 18.1375 5.55822 17.8998 4.93314C17.6879 4.39832 17.3582 3.91403 16.9332 3.51361C16.5205 3.10253 16.0161 2.78714 15.4582 2.59132C14.8104 2.35566 14.1255 2.22818 13.4332 2.21438C12.5498 2.16626 12.2665 2.16626 9.99984 2.16626C7.73317 2.16626 7.44984 2.16626 6.5665 2.21438C5.87413 2.22818 5.18929 2.35566 4.5415 2.59132C3.98457 2.78913 3.48062 3.10424 3.0665 3.51361C2.63936 3.91074 2.31165 4.39616 2.10817 4.93314C1.8633 5.55656 1.73085 6.21565 1.7165 6.88199C1.6665 7.7321 1.6665 8.00478 1.6665 10.1862C1.6665 12.3676 1.6665 12.6403 1.7165 13.4904C1.73085 14.1568 1.8633 14.8158 2.10817 15.4393C2.31165 15.9762 2.63936 16.4617 3.0665 16.8588C3.48062 17.2682 3.98457 17.5833 4.5415 17.7811C5.18929 18.0167 5.87413 18.1442 6.5665 18.158C7.44984 18.2061 7.73317 18.2061 9.99984 18.2061C12.2665 18.2061 12.5498 18.2061 13.4332 18.158C14.1255 18.1442 14.8104 18.0167 15.4582 17.7811C16.0161 17.5853 16.5205 17.2699 16.9332 16.8588C17.36 16.4599 17.6901 15.9752 17.8998 15.4393C18.1375 14.8142 18.267 14.1558 18.2832 13.4904C18.2832 12.6403 18.3332 12.3676 18.3332 10.1862C18.3332 8.00478 18.3332 7.7321 18.2832 6.88199ZM16.7832 13.3942C16.7771 13.9033 16.6813 14.4077 16.4998 14.8859C16.3668 15.2349 16.1531 15.5503 15.8748 15.8082C15.6045 16.0732 15.2775 16.2785 14.9165 16.4097C14.4196 16.5843 13.8955 16.6765 13.3665 16.6824C12.5332 16.7225 12.2248 16.7305 10.0332 16.7305C7.8415 16.7305 7.53317 16.7305 6.69984 16.6824C6.15058 16.6923 5.60367 16.6109 5.08317 16.4418C4.73799 16.3039 4.42597 16.0991 4.1665 15.8403C3.88991 15.5826 3.67887 15.267 3.54984 14.918C3.34638 14.4329 3.23354 13.917 3.2165 13.3942C3.2165 12.5922 3.1665 12.2954 3.1665 10.1862C3.1665 8.07696 3.1665 7.78022 3.2165 6.97823C3.22024 6.45778 3.31896 5.94201 3.50817 5.45444C3.65488 5.11592 3.88006 4.81417 4.1665 4.57224C4.41968 4.29649 4.73258 4.07749 5.08317 3.93065C5.59113 3.75424 6.1265 3.66204 6.6665 3.65797C7.49984 3.65797 7.80817 3.60985 9.99984 3.60985C12.1915 3.60985 12.4998 3.60985 13.3332 3.65797C13.8621 3.66381 14.3863 3.75601 14.8832 3.93065C15.2619 4.06591 15.6017 4.28581 15.8748 4.57224C16.1479 4.8186 16.3613 5.11979 16.4998 5.45444C16.685 5.9428 16.7809 6.45836 16.7832 6.97823C16.8248 7.78022 16.8332 8.07696 16.8332 10.1862C16.8332 12.2954 16.8248 12.5922 16.7832 13.3942ZM9.99984 6.07197C9.15468 6.07356 8.32897 6.3162 7.62705 6.76924C6.92513 7.22228 6.37849 7.86539 6.0562 8.6173C5.73391 9.36922 5.65044 10.1962 5.81633 10.9938C5.98222 11.7913 6.39003 12.5236 6.98823 13.0982C7.58643 13.6728 8.34818 14.0639 9.17722 14.222C10.0063 14.3801 10.8654 14.2981 11.6461 13.9865C12.4267 13.6749 13.0939 13.1475 13.5633 12.4711C14.0327 11.7947 14.2832 10.9996 14.2832 10.1862C14.2843 9.64494 14.1742 9.10881 13.9592 8.60864C13.7442 8.10848 13.4286 7.65415 13.0306 7.2718C12.6325 6.88944 12.1598 6.58659 11.6397 6.38068C11.1195 6.17477 10.5622 6.06986 9.99984 6.07197ZM9.99984 12.8568C9.45099 12.8568 8.91448 12.7002 8.45813 12.4068C8.00178 12.1133 7.6461 11.6962 7.43607 11.2082C7.22604 10.7202 7.17108 10.1832 7.27816 9.66519C7.38523 9.14713 7.64953 8.67127 8.03762 8.29777C8.42571 7.92428 8.92016 7.66992 9.45846 7.56688C9.99676 7.46383 10.5547 7.51672 11.0618 7.71885C11.5688 7.92099 12.0022 8.26329 12.3072 8.70247C12.6121 9.14166 12.7748 9.658 12.7748 10.1862C12.7748 10.5369 12.7031 10.8842 12.5636 11.2082C12.4241 11.5322 12.2197 11.8266 11.9621 12.0746C11.7044 12.3226 11.3985 12.5193 11.0618 12.6536C10.7251 12.7878 10.3643 12.8568 9.99984 12.8568Z" fill="white"/>
</svg>
